<svg xmlns="http://www.w3.org/2000/svg" viewBox="0 0 160 160">
<!-- SVG created with Arrow, by QuiverAI (https://quiver.ai) -->
  <style type="text/css">.cls-1 {fill:#061022;}
.cls-2 {fill:none;stroke:#2835A6;stroke-width:0.75;stroke-linecap:round;stroke-linejoin:round;stroke-miterlimit:10;stroke-dasharray:2.28,2.28;}
.cls-3 {fill:none;stroke:#2835A6;stroke-width:0.75;stroke-linecap:round;stroke-linejoin:round;stroke-miterlimit:10;}
.cls-4 {fill:#2835A6;}
.cls-5 {fill:url(#SVGID_1_);}
.cls-6 {fill:none;stroke:#2835A6;stroke-width:0.75;stroke-linecap:round;stroke-linejoin:round;}
.cls-7 {fill:#0942F4;}
.cls-8 {fill:#061022;stroke:url(#SVGID_2_);stroke-width:1.3102;stroke-linecap:round;stroke-miterlimit:10;}
.cls-9 {fill:none;stroke:url(#SVGID_3_);stroke-width:1.3102;stroke-linecap:round;stroke-miterlimit:10;}
.cls-10 {fill:none;stroke:url(#SVGID_4_);stroke-width:1.3102;stroke-linecap:round;stroke-miterlimit:10;}
.cls-11 {fill:none;stroke:url(#SVGID_5_);stroke-width:1.3102;stroke-linecap:round;stroke-miterlimit:10;}
.cls-12 {fill:url(#SVGID_6_);}
.cls-13 {fill:url(#SVGID_7_);}
.cls-14 {fill:#061022;stroke:url(#SVGID_8_);stroke-width:1.3102;stroke-linecap:round;stroke-miterlimit:10;}
.cls-15 {fill:none;stroke:url(#SVGID_9_);stroke-width:1.3102;stroke-linecap:round;stroke-miterlimit:10;}
.cls-16 {fill:url(#SVGID_10_);}
.cls-17 {fill:url(#SVGID_11_);}
.cls-18 {fill:#2655FC;}
.cls-19 {fill:url(#SVGID_12_);}</style>
  <path class="cls-1" d="m33.2 24.1h-27.5c-2.1 0-3.7 1.7-3.7 3.7v16.2c0 2.1 1.6 3.6 3.6 3.6h27.7c2 0.1 3.9-1.5 3.9-3.6v-15.8c0-2.2-1.8-4.1-4-4.1z"/>
  <linearGradient id="SVGID_1_" x1="6.741" x2="32.09" y1="32.75" y2="39.71" gradientUnits="userSpaceOnUse">
    <stop stop-color="#7556FF" offset="0"/>
    <stop stop-color="#2835A6" offset="1"/>
  </linearGradient>
  <path class="cls-5" d="m30.9 38.5h-23.1c-0.6 0-1.1 0.6-1.1 1.2 0 0.7 0.5 1.2 1.1 1.2h23.4c1.2 0.2 1.4-2.3-0.3-2.4zm-17-6.8c-0.8 0.3-0.9 2 0.2 2.2h8.5c1.2 0.1 1.2-2.3-0.2-2.3l-8.5 0.1z"/>
  <circle class="cls-4" cx="38.5" cy="66.3" r="1.5"/>
  <linearGradient id="SVGID_2_" x1="40.42" x2="80.11" y1="72.09" y2="72.09" gradientUnits="userSpaceOnUse">
    <stop stop-color="#7556FF" offset="0"/>
    <stop stop-color="#6D7FFF" offset="1"/>
  </linearGradient>
  <path class="cls-8" d="m71.2 32.7c-4.2 0-8.2 2.4-9.4 7.2-5.4 0.6-10.8 5.7-9.8 12.4-3.6 1.5-7.5 5.5-7.5 12.3 0 1.2 0.3 2.5 0.7 4.7-2.6 1.4-5.2 5.3-5.2 10.6 0 5.7 3.1 10 7.3 12.6-0.7 1.5-1 3.1-1 5 0 6.4 5.2 12.9 12.2 13.5 1.6 4.5 5.7 8.3 11.6 8.3 4.8 0 9.4-2.9 10.4-7.7l-0.4-71.6c-0.5-4.1-4.5-7.3-8.9-7.3z"/>
  <path class="cls-1" d="m62.5 40.4c-4.8 0-10.2 4.6-10.2 9.6 0 0.7 0.1 1.4-0.7 2.4-3.6 1.6-7.1 5.6-7.1 12.2 0 1.3 0.3 2.8 0.8 4.6-2.7 2.1-5 5.4-5.1 10.7 0 5.7 3.2 10.5 7.1 12.6-0.6 1.5-1 3.1-1 5 0 6.4 5.3 12.8 12.3 13.2 1.3 4.6 5.5 8.1 11 8.1 5.3 0 10.3-3.2 10.5-8.9v-69.4c-0.7-4.1-4.2-7.3-8.9-7.3-3.6 0-7.7 2.3-8.7 6.2v1z"/>
  <linearGradient id="SVGID_3_" x1="52.02" x2="70.04" y1="50.95" y2="50.95" gradientUnits="userSpaceOnUse">
    <stop stop-color="#7556FF" offset="0"/>
    <stop stop-color="#2670FF" offset="1"/>
  </linearGradient>
  <path class="cls-9" d="m52.7 52.3c1.2-0.4 2.6-0.7 4.2-0.5 0.4-0.1 0.9-0.2 1.4-0.6"/>
  <linearGradient id="SVGID_4_" x1="62.21" x2="69.94" y1="44.49" y2="44.49" gradientUnits="userSpaceOnUse">
    <stop stop-color="#2655FC" offset="0"/>
    <stop stop-color="#2670FF" offset="1"/>
  </linearGradient>
  <path class="cls-10" d="m62.8 40c2.8-0.2 6.5 1.7 6.5 5v3.3"/>
  <linearGradient id="SVGID_5_" x1="49.24" x2="57.59" y1="74.23" y2="74.23" gradientUnits="userSpaceOnUse">
    <stop stop-color="#6171F2" offset="0"/>
    <stop stop-color="#968CFF" offset="1"/>
  </linearGradient>
  <path class="cls-11" d="m51.7 74.4c-1 0.6-2.2 1.6-2.4 2.4"/>
  <linearGradient id="SVGID_6_" x1="44.1" x2="57.59" y1="64.2" y2="64.2" gradientUnits="userSpaceOnUse">
    <stop stop-color="#7556FF" offset="0"/>
    <stop stop-color="#6D7FFF" offset="1"/>
  </linearGradient>
  <path class="cls-12" d="m56.5 72.6c-0.8 0.8-2 1.1-3.1 1.1-4.6 0-8.3-4.3-8.3-9.2 0-5.9 4.7-11.9 11.4-12.1l0.4-1.1c-1.6-0.2-2.8 0-4.4 0.5-3.1 1.1-8.6 4.8-8.6 12.7 0 5.1 4.5 10.6 9.5 10.6 1.8 0 3.5-0.6 4.1-1.5 0.9-0.7 0-1.8-1-1z"/>
  <linearGradient id="SVGID_7_" x1="51.68" x2="68.46" y1="64.62" y2="64.62" gradientUnits="userSpaceOnUse">
    <stop stop-color="#2670FF" offset="0"/>
    <stop stop-color="#267BFE" offset="1"/>
  </linearGradient>
  <path class="cls-13" d="m67.5 66.5c0.4-0.4 0.7-1 0.7-1.6 0-1.3-1-2.5-2.4-2.5-0.7 0-1.3 0.3-1.8 0.7-0.9-0.5-1.8-0.8-2.8-0.8h-4.4c-1.5 0-3.1-1.2-3.7-3.4l-0.7-0.4-0.8 0.6c0.6 2.5 2.8 4.4 5.2 4.4h4.4c0.8 0 1.6 0.2 2.3 0.6-0.1 0.3-0.3 0.5-0.3 0.9 0 1.4 1.1 2.6 2.4 2.6 0.3 0 0.6-0.1 1-0.2 0.5 0.7 0.8 1.6 0.8 2.7-0.2 1.4 1.1 1.6 1.2 0.5 0.1-1.5-0.4-3-1.1-4.1z"/>
  <linearGradient id="SVGID_8_" x1="80.17" x2="121.9" y1="72.09" y2="72.09" gradientUnits="userSpaceOnUse">
    <stop stop-color="#6D7FFF" offset="0"/>
    <stop stop-color="#2655FC" offset="1"/>
  </linearGradient>
  <path class="cls-14" d="m90.4 32.7c3.9 0 8.3 1.9 9.6 7 5.4 0.3 10.1 4.7 10.1 9.8 0 0.9-0.1 1.8-0.4 3.1 3.9 1.3 7.4 5.4 7.4 11.8 0 0.6 0 1.3-0.2 2.2 2.6 1.4 4.7 3.8 4.7 7.8 0 1.1-0.2 2.2-0.7 3.5 0.5 1.2 0.5 2.5 0.5 3.7 0 5-2.9 9-7.5 11 0.7 1.5 1 3.3 1 5 0 6.5-5 12.8-12.2 13.4-1.1 4.1-5.3 8.3-11.3 8.3-5 0-9.3-2.7-11-7.9l0.2-71c0.6-4.5 4.8-7.7 9.8-7.7z"/>
  <path class="cls-1" d="m81.2 40.4c0.4-3.5 3.9-7 8.7-7.2 4.2 0 8.6 2.4 9.5 7.2 5 0 10.1 4 10.1 9.2 0 2.8-0.8 4.5-3.4 6-0.2 0.9 0.4 1 0.8 0.9 1.5-0.4 2.2-1.1 3-2.9 4 1.5 6.7 5.4 6.7 10.9 0 5.1-3.2 9.1-8.5 9.4h-4.5c-3 0-6 2.5-6 5.7v4c0 2.5-1.9 4.5-4.6 4.5-1.1 0-2.3-0.5-3.3-1.4l-1 0.2-0.2 0.8c1 1.2 2.6 1.8 4.4 1.8 3.2 0 5.8-2.6 5.8-5.9v-4c0-2.1 2.2-4.5 4.9-4.5h4.3c0.8 0 1.7-0.1 2.7-0.5 0.5 3.3 2.5 6 5.8 6 1.7 0 3.2-0.7 4.2-1.7 0.3 1 0.3 2 0.3 3 0 5.5-4.3 10.7-10.5 10.7h-0.8c-0.5-0.9-1.2-1.5-2.6-1.5s-3.1 1-3.1 2.5c0 1.4 1.2 2.5 2.6 2.5s2.4-0.7 3-2.2h0.9c1.3 0 2.5-0.2 3.2-0.5 0.5 1.2 0.8 2.7 0.8 4.2 0 6.1-4.7 12.3-12 12.5-1 4.4-5.3 8.5-10.9 8.5-5.4 0-9.9-3.6-10.6-8.5l0.3-69.7z"/>
  <linearGradient id="SVGID_9_" x1="109.9" x2="122.3" y1="73.44" y2="73.44" gradientUnits="userSpaceOnUse">
    <stop stop-color="#2655FC" offset="0"/>
    <stop stop-color="#3365FB" offset="1"/>
  </linearGradient>
  <path class="cls-15" d="m111.2 74c2.5-0.6 5.3-3.1 6.2-7.4 2.1 0.9 4.2 3.8 4.2 7.5 0 3-2.1 5.8-5.1 5.8-2.6 0-5-2.3-5.3-5.9z"/>
  <linearGradient id="SVGID_10_" x1="91.06" x2="112.2" y1="63.28" y2="63.28" gradientUnits="userSpaceOnUse">
    <stop stop-color="#3E75FF" offset="0"/>
    <stop stop-color="#2849CD" offset="1"/>
  </linearGradient>
  <path class="cls-16" d="m111.1 61.9c-0.5 1.7-2 2.5-3.5 2.5h-8.2c-0.9 0-1.8-0.3-2.3-0.8 0-0.2 0.1-0.5 0.1-0.9 0-1.6-1.3-3.2-3.1-3.2s-3 1.5-3 3.1 1.3 3.1 3 3.1c0.9 0 1.6-0.3 2.3-0.8 0.7 0.5 1.7 0.8 3 0.8h8.2c2.3 0 4.1-1.3 4.6-3.1 0.5-1.1-1-1.9-1.1-0.7z"/>
  <linearGradient id="SVGID_11_" x1="88.36" x2="98.72" y1="81.34" y2="81.34" gradientUnits="userSpaceOnUse">
    <stop stop-color="#8461F4" offset="0"/>
    <stop stop-color="#9671F8" offset="1"/>
  </linearGradient>
  <path class="cls-17" d="m93.1 88.1c-1.2 0-2.4-0.2-3.4-1.2-0.7-0.8-2 0.5-0.7 1.2 0.9 0.8 2.2 1.4 3.9 1.4 3.2 0 5.8-2.6 5.8-5.6v-4c0-2.4 2.3-4.8 5-4.8h5v-1.2h-5.1c-3 0-6 2.5-6 5.7v4c0 2.5-1.9 4.5-4.5 4.5z"/>
  <path class="cls-1" d="m132.4 37h22.7c2 0 3.3 1.6 3.3 3.4v17.5c0 1.7-1.4 3.7-3.3 3.7h-22.6c-1.9 0-4.1-1.5-4.1-3.6v-17.4c-0.2-2 1.5-3.6 4-3.6z"/>
  <linearGradient id="SVGID_12_" x1="132.4" x2="155.4" y1="52.12" y2="52.12" gradientUnits="userSpaceOnUse">
    <stop stop-color="#5646F5" offset="0"/>
    <stop stop-color="#3C37D3" offset="1"/>
  </linearGradient>
  <path class="cls-16" d="m132.9 55.2 6.7-7.3 1.3-0.4 5.2 5.1 2.9-2.6 0.9-0.5 5.5 5.9c0 1-0.3 2.2-1.3 2.2h-20.2c-1.7 0-2-1.7-1-2.4z"/>
  <circle class="cls-18" cx="135.4" cy="43.5" r="2.4"/>
  <linearGradient id="SVGID_13_" x1="91.06" x2="93.68" y1="45.86" y2="45.86" gradientUnits="userSpaceOnUse">
    <stop stop-color="#556FF8" offset="0"/>
    <stop stop-color="#4D68F4" offset="1"/>
  </linearGradient>
  <path d="m92.1 42.4c0.4 0.3 0.6 1 0.6 1.5v3.5" fill="none" stroke="url(#SVGID_13_)" stroke-linecap="round" stroke-miterlimit="10" stroke-width="1.31"/>
  <circle class="cls-18" cx="69.4" cy="49.7" r="2.4"/>
  <circle class="cls-15" cx="92.6" cy="48.9" r="2.1"/>
  <circle class="cls-17" cx="72.3" cy="83.5" r="2.4"/>
  <linearGradient id="SVGID_14_" x1="58.59" x2="70.46" y1="86.08" y2="86.08" gradientUnits="userSpaceOnUse">
    <stop stop-color="#2835A6" offset="0"/>
    <stop stop-color="#3E75FF" offset="1"/>
  </linearGradient>
  <path d="m59.2 87.9c0-2.4 2-4.8 4.4-4.8h6.5" fill="none" stroke="url(#SVGID_14_)" stroke-linecap="round" stroke-miterlimit="10" stroke-width="1.31"/>
  <linearGradient id="SVGID_15_" x1="47.1" x2="59.9" y1="91.5" y2="91.5" gradientUnits="userSpaceOnUse">
    <stop stop-color="#3E75FF" offset="0"/>
    <stop stop-color="#337EFF" offset="1"/>
  </linearGradient>
  <path d="m47.7 92.4c1.4 0.5 2.8 1 4.7 1 3.3 0.1 6.8-1.9 6.8-5" fill="none" stroke="url(#SVGID_15_)" stroke-linecap="round" stroke-miterlimit="10" stroke-width="1.31"/>
  <linearGradient id="SVGID_16_" x1="108.4" x2="114" y1="93.11" y2="93.11" gradientUnits="userSpaceOnUse">
    <stop stop-color="#5761F2" offset="0"/>
    <stop stop-color="#2849CD" offset="1"/>
  </linearGradient>
  <path d="m109 93.1c1.4 0.3 3.7 0.3 4.4-0.2" fill="none" stroke="url(#SVGID_16_)" stroke-linecap="round" stroke-miterlimit="10" stroke-width="1.31"/>
  <circle class="cls-17" cx="106.2" cy="93.6" r="2.4"/>
  <path class="cls-1" d="m47.1 113.1h-38.2c-1.7 0-3.2 1.6-3.2 3.5v14.1c0 2 1.5 3.5 3.4 3.5l38-0.1c1.8 0 3.5-1.4 3.5-3.4v-13.8c0.1-1.9-1.4-3.8-3.5-3.8z"/>
  <linearGradient id="SVGID_17_" x1="34.1" x2="46.38" y1="121.4" y2="121.4" gradientUnits="userSpaceOnUse">
    <stop stop-color="#1E2780" offset="0"/>
    <stop stop-color="#1E2780" offset="1"/>
  </linearGradient>
  <path d="m35.1 120.5c-1.1 0.1-1.4 2 0 2.1h10.3c1.3 0.1 1.5-2.1 0-2l-10.3-0.1z" fill="url(#SVGID_17_)"/>
  <linearGradient id="SVGID_18_" x1="34.1" x2="46.38" y1="126.5" y2="126.5" gradientUnits="userSpaceOnUse">
    <stop stop-color="#1E2780" offset="0"/>
    <stop stop-color="#1E2780" offset="1"/>
  </linearGradient>
  <path d="m35.1 125.6c-1.1 0.1-1.5 2 0 2h10.3c1.3 0.1 1.5-2.1 0-2h-10.3z" fill="url(#SVGID_18_)"/>
  <path class="cls-1" d="m147.7 113.1h-23.1c-1.7 0-3.4 1.5-3.4 3.5v15.8c0 1.8 1.5 3.5 3.4 3.5h23.3c1.8 0 3.3-1.5 3.3-3.4v-15.9c0-1.7-1.6-3.5-3.5-3.5z"/>
  <linearGradient id="SVGID_19_" x1="129.3" x2="129.3" y1="132.1" y2="125.9" gradientUnits="userSpaceOnUse">
    <stop stop-color="#3E37F7" offset="0"/>
    <stop stop-color="#4946FF" offset="1"/>
  </linearGradient>
  <path d="m127.9 126h3.2c0.5 0 0.8 0.4 0.8 0.6v4.8c0 0.3-0.4 0.7-0.7 0.7h-3.3c-0.4 0-0.8-0.4-0.8-0.7v-4.8c0-0.2 0.4-0.6 0.8-0.6z" fill="url(#SVGID_19_)"/>
  <linearGradient id="SVGID_20_" x1="136.8" x2="136.8" y1="132.1" y2="122.7" gradientUnits="userSpaceOnUse">
    <stop stop-color="#2835A6" offset="0"/>
    <stop stop-color="#3355FD" offset="1"/>
  </linearGradient>
  <path d="m135.4 122.7h3c0.3 0 0.7 0.4 0.7 0.8v8c0 0.2-0.4 0.6-0.7 0.6h-3.2c-0.5 0-0.8-0.4-0.8-0.6v-8c0-0.4 0.5-0.8 1-0.8z" fill="url(#SVGID_20_)"/>
  <linearGradient id="SVGID_21_" x1="143.8" x2="143.8" y1="132.1" y2="117.8" gradientUnits="userSpaceOnUse">
    <stop stop-color="#2835A6" offset="0"/>
    <stop stop-color="#2655FB" offset=".931"/>
  </linearGradient>
  <path d="m142.5 117.8h2.9c0.3 0 0.7 0.3 0.7 0.8v12.9c0 0.2-0.4 0.6-0.7 0.6h-3c-0.5 0-0.9-0.4-0.9-0.6v-12.9c0-0.5 0.5-0.8 1-0.8z" fill="url(#SVGID_21_)"/>
  <path class="cls-2" d="m20.2 47.5v14c0 2 1.5 4.7 4.9 4.8h12.4"/>
  <path class="cls-3" d="m23.7 113.4v-11c0-1.7 1.7-4.5 4.5-4.5h11.9"/>
  <path class="cls-2" d="m144.1 61.6v8.4c0 2.1-1.6 4.1-4 4.1h-12.5"/>
  <path class="cls-2" d="m121.6 124.7h-12.6c-1.5 0-3.4-1.3-3.4-3.1v-4"/>
  <circle class="cls-4" cx="40.5" cy="97.9" r="1.5"/>
  <circle class="cls-4" cx="105.5" cy="117.5" r="1.5"/>
  <circle class="cls-4" cx="126.9" cy="74.2" r="1.6"/>
  <linearGradient id="SVGID_22_" x1="62.13" x2="68.59" y1="105.4" y2="105.4" gradientUnits="userSpaceOnUse">
    <stop stop-color="#3E75FF" offset="0"/>
    <stop stop-color="#2835A6" offset="1"/>
  </linearGradient>
  <path d="m62.5 101.2c1.6 0 3.9 1.7 3.9 3.9v1.8c0.1 1.1 0.7 2.2 1.5 3" fill="none" stroke="url(#SVGID_22_)" stroke-linecap="round" stroke-miterlimit="10" stroke-width="1.441"/>
  <linearGradient id="SVGID_23_" x1="91.72" x2="98.72" y1="105.7" y2="105.7" gradientUnits="userSpaceOnUse">
    <stop stop-color="#2835A6" offset="0"/>
    <stop stop-color="#6171F2" offset="1"/>
  </linearGradient>
  <path d="m92.4 110.1c1-0.5 1.5-1.6 1.5-2.7v-1.7c0-2 1.7-4.1 4.1-4.5" fill="none" stroke="url(#SVGID_23_)" stroke-linecap="round" stroke-miterlimit="10" stroke-width="1.31"/>
  <linearGradient id="SVGID_24_" x1="9.838" x2="28.69" y1="124.1" y2="124.1" gradientUnits="userSpaceOnUse">
    <stop stop-color="#1D48FB" offset="0"/>
    <stop stop-color="#2655FB" offset="1"/>
  </linearGradient>
  <path d="m13.9 121-3.3 3 3.1 2.9m10.9-5.8 3.3 2.9-3.3 2.9m-3.8-7.4-3.2 8.7" fill="none" stroke="url(#SVGID_24_)" stroke-linecap="round" stroke-linejoin="round" stroke-miterlimit="10" stroke-width="1.561"/>
  <circle class="cls-17" cx="8.6" cy="32.7" r="2.1"/>
  <linearGradient id="SVGID_25_" x1="132.3" x2="155.4" y1="52.36" y2="52.36" gradientUnits="userSpaceOnUse">
    <stop stop-color="#5646F5" offset="0"/>
    <stop stop-color="#3C37D3" offset="1"/>
  </linearGradient>
  <path d="m132.9 55.2 6.7-7.3h1.9l4.6 4.7 2.6-2.6c0.7-0.9 1.5-0.9 2.3 0l3.9 4.9c1.1 0.8 0.5 2.7-0.8 2.7h-20.2c-1.4 0-2-1.7-1-2.4z" fill="url(#SVGID_25_)"/>
</svg>
