<svg xmlns="http://www.w3.org/2000/svg" viewBox="0 0 150 150">
<!-- SVG created with Arrow, by QuiverAI (https://quiver.ai) -->
  <style type="text/css">.cls-1 {fill:#0B1020;stroke:url(#SVGID_1_);stroke-width:0.56;stroke-miterlimit:10;}
.cls-2 {fill:url(#SVGID_2_);}
.cls-3 {fill:url(#SVGID_3_);}
.cls-4 {fill:none;stroke:url(#SVGID_4_);stroke-width:1.2;stroke-linecap:round;stroke-linejoin:round;stroke-dasharray:1.4,3.15;}
.cls-5 {fill:none;stroke:url(#SVGID_5_);stroke-width:1.2;stroke-linecap:round;stroke-linejoin:round;stroke-dasharray:1.4,3.15;}
.cls-6 {fill:url(#SVGID_6_);stroke:url(#SVGID_7_);stroke-width:0.6;stroke-miterlimit:10;}
.cls-7 {fill:url(#SVGID_8_);}
.cls-8 {fill:none;stroke:url(#SVGID_9_);stroke-width:1.02;stroke-linecap:round;stroke-linejoin:round;stroke-dasharray:1.4,3.15;}
.cls-9 {fill:url(#SVGID_10_);stroke:url(#SVGID_11_);stroke-width:0.5;stroke-miterlimit:10;}
.cls-10 {fill:url(#SVGID_12_);}</style>
  <linearGradient id="SVGID_1_" x1="37.99" x2="113.5" y1="135.2" y2="135.2" gradientUnits="userSpaceOnUse">
    <stop stop-color="#3E5795" offset="0"/>
    <stop stop-color="#453685" offset="1"/>
  </linearGradient>
  <path class="cls-1" d="m109.5 125.7h-67.6c-1.9 0-3.7 1.5-3.7 3.6v10.9c0 2 1.5 3.6 3.6 3.6h67.6c2 0 3.8-1.5 3.8-3.6v-10.9c0-2-1.6-3.6-3.7-3.6z"/>
  <linearGradient id="SVGID_2_" x1="47" x2="52.29" y1="134.9" y2="134.9" gradientUnits="userSpaceOnUse">
    <stop stop-color="#25A6F8" offset="0"/>
    <stop stop-color="#6E40EE" offset="1"/>
  </linearGradient>
  <circle class="cls-2" cx="49.7" cy="134.9" r="2.5"/>
  <linearGradient id="SVGID_3_" x1="56.62" x2="72.62" y1="134.8" y2="134.8" gradientUnits="userSpaceOnUse">
    <stop stop-color="#3775F6" offset="0"/>
    <stop stop-color="#7856F5" offset="1"/>
  </linearGradient>
  <path class="cls-3" d="m71.5 135.9h-13.7c-0.5 0-1.1-0.4-1.1-1s0.5-1.1 1-1.1h13.8c1 0 1.5 2.1 0 2.1z"/>
  <linearGradient id="SVGID_4_" x1="93.7" x2="104.1" y1="134.8" y2="134.8" gradientUnits="userSpaceOnUse">
    <stop stop-color="#3775F6" offset="0"/>
    <stop stop-color="#7856F5" offset="1"/>
  </linearGradient>
  <path class="cls-4" d="m94.6 134.8h8.5m-4.3 0"/>
  <linearGradient id="SVGID_5_" x1="114.8" x2="136.4" y1="94.65" y2="94.65" gradientUnits="userSpaceOnUse">
    <stop stop-color="#6656F5" offset="0"/>
    <stop stop-color="#8356EE" offset="1"/>
  </linearGradient>
  <path class="cls-5" d="m115.4 94.7h15.5c2 0 4.8-1.5 4.8-4.1v-14.7"/>
  <linearGradient id="SVGID_6_" x1="36.58" x2="116.8" y1="27.12" y2="44.94" gradientUnits="userSpaceOnUse">
    <stop stop-color="#133572" offset="0"/>
    <stop stop-color="#0C1223" offset="1"/>
  </linearGradient>
  <path class="cls-6" d="m101.3 23c-0.7 0-1.3 0.1-2.5 0.2-0.6-8.2-8.2-17.2-18.8-17.2-10.2 0-17.2 7.7-18.6 15.3-0.4 0-1-0.1-1.7 0-5.6 0-11.8 5.4-12.2 12.5h-1.2c-4.8 0-9.6 4.3-9.6 9.6s4.1 10.5 9.4 10.5h57.2c7.2 0.3 13.4-5.7 13.4-15.1-0.3-7.8-6.4-15.8-15.4-15.8z"/>
  <linearGradient id="SVGID_7_" x1="36.48" x2="116.9" y1="29.92" y2="29.92" gradientUnits="userSpaceOnUse">
    <stop stop-color="#3775F6" offset="0"/>
    <stop stop-color="#6E40EE" offset="1"/>
  </linearGradient>
  <path class="cls-7" d="m103.3 54.2h-0.6-56.5c-5.1 0-9.7-4.4-9.7-10.7 0-4.9 4.3-9.9 9.5-9.9h1.2c0.5-6.5 6-12.7 12.4-12.7h1.5c1.3-7.1 7.8-15.1 18.3-15.1 10.1 0 18.8 7.9 19.6 17l1.8-0.1c8.4-0.3 16.1 6.6 16.1 16.1-0.1 8.5-5.8 15.4-13.6 15.4zm-57-20.1c-4.7 0-9.3 4.3-9.3 9.3s3.9 10.1 9.2 10.2h56.5c8 0.3 13.7-5.7 13.7-14.7-0.2-7.6-6.3-15.5-15.1-15.6l-2.6 0.2-0.1-0.3c-0.5-8.7-8.6-16.9-18.6-16.9-9.2-0.2-16.6 6.8-18.3 15.2l-0.1 0.1h-2c-5.2 0-11.5 4.9-11.9 12.2v0.2l-1.4 0.1z"/>
  <linearGradient id="SVGID_8_" x1="47" x2="58.15" y1="46.14" y2="46.14" gradientUnits="userSpaceOnUse">
    <stop stop-color="#0030DC" offset="0"/>
    <stop stop-color="#000F89" stop-opacity="0" offset="1"/>
  </linearGradient>
  <ellipse class="cls-7" cx="55.6" cy="46.1" rx="2.6" ry="2.8"/>
  <linearGradient id="SVGID_9_" x1="14.11" x2="36.32" y1="84.85" y2="84.85" gradientUnits="userSpaceOnUse">
    <stop stop-color="#3775F6" offset="0"/>
    <stop stop-color="#3775F6" offset="1"/>
  </linearGradient>
  <path class="cls-8" d="m14.6 75.6v14.1c0 2.3 2.1 4.9 5.3 5h15.8"/>
  <linearGradient id="SVGID_10_" x1="1.5" x2="28.9" y1="63.75" y2="63.75" gradientUnits="userSpaceOnUse">
    <stop stop-color="#133572" offset="0"/>
    <stop stop-color="#0C1223" offset="1"/>
  </linearGradient>
  <path class="cls-9" d="m23.6 62.6h-0.1c-0.1-3.4-3.1-9-8.9-9-4.5 0-7.6 3.7-7.9 7.9-2.5 0-5.2 2.1-5.2 5.6 0 2.7 2.2 5.6 5.3 5.6h17.1c2.9 0.1 5-2.1 5-5.1 0-2.4-2.3-5-5.3-5z"/>
  <linearGradient id="SVGID_11_" x1="1.5" x2="29.1" y1="62.95" y2="62.95" gradientUnits="userSpaceOnUse">
    <stop stop-color="#3775F6" offset="0"/>
    <stop stop-color="#6E40EE" offset="1"/>
  </linearGradient>
  <path class="cls-10" d="m23.9 73h-17.1c-3.2 0-5.2-2.7-5.2-5.9 0-2.6 2.1-5.7 5.1-5.8 0.4-3.8 3.7-7.9 8-8 5.1-0.2 8.8 4 8.9 9l0.3 0.1c2.8 0 5.2 2.4 5.2 5 0.1 2.7-1.9 5.4-5.2 5.6zm-17.1-11.2c-2.4 0-4.9 2-4.9 5.4 0 2.3 1.9 5.2 4.9 5.3h17.1c2.9 0.1 4.7-2 4.7-4.9 0-2.5-2.2-4.7-4.9-4.7h-0.5v-0.3c-0.1-3.6-2.9-8.7-8.4-8.7-4.2 0-7.5 3.5-7.9 7.6l-0.1 0.3z"/>
  <linearGradient id="SVGID_12_" x1="120.9" x2="148.3" y1="63.75" y2="63.75" gradientUnits="userSpaceOnUse">
    <stop stop-color="#133572" offset="0"/>
    <stop stop-color="#0C1223" offset="1"/>
  </linearGradient>
  <path class="cls-10" d="m143.5 64.2h-0.2c0-3.4-2.7-8.8-8.5-8.8-4.2 0-7.7 3.2-8 7.6-2.5-0.1-5.7 2-5.7 5.5 0 2.7 2.2 5.6 5.2 5.6h17.3c2.7 0.4 4.7-1.9 4.7-4.9 0-2.4-1.7-4.9-4.8-5z"/>
  <linearGradient id="SVGID_13_" x1="120.8" x2="148.3" y1="64.55" y2="64.55" gradientUnits="userSpaceOnUse">
    <stop stop-color="#3775F6" offset="0"/>
    <stop stop-color="#6E40EE" offset="1"/>
  </linearGradient>
  <path d="m143.9 74.4h-17.7c-3.1 0-5.4-2.7-5.4-5.9 0-2.6 2.3-5.6 5.8-5.7 0.4-3.5 3.6-7.6 8.2-7.6 5-0.1 8.7 4 8.8 8.8h0.3c2.7 0 4.4 2.4 4.4 5 0.1 2.7-1.6 5.1-4.4 5.4zm-17-11.1c-2.6 0-5.5 1.8-5.5 5.2 0 2.3 1.8 5.2 4.8 5.3h17.8c2.6 0.1 4-2.1 4-4.6 0-2.4-1.7-4.6-4.5-4.8h-0.4v-0.3c0-3.4-2.8-8.4-8-8.4-4.5-0.3-7.7 3.4-8.1 7.4l-0.1 0.2z" fill="url(#SVGID_13_)"/>
  <path d="m55.8 52.2v33.8" fill="none" stroke="#3775F6" stroke-dasharray="1.4,3.15" stroke-linecap="round" stroke-linejoin="round" stroke-width="1.02"/>
  <path d="m76 43.6v42.2" fill="none" stroke="#3775F6" stroke-dasharray="1.4,3.15" stroke-linecap="round" stroke-linejoin="round" stroke-width="1.02"/>
  <path d="m96.4 52.2v33.6" fill="none" stroke="#3775F6" stroke-dasharray="1.4,3.15" stroke-linecap="round" stroke-linejoin="round" stroke-width="1.02"/>
  <linearGradient id="SVGID_14_" x1="53.42" x2="58.13" y1="46.14" y2="46.14" gradientUnits="userSpaceOnUse">
    <stop stop-color="#30C3FF" offset="0"/>
    <stop stop-color="#3782FF" offset="1"/>
  </linearGradient>
  <ellipse cx="55.7" cy="46.1" rx="2.2" ry="2.1" fill="url(#SVGID_14_)"/>
  <linearGradient id="SVGID_15_" x1="73.86" x2="78.15" y1="40.5" y2="40.5" gradientUnits="userSpaceOnUse">
    <stop stop-color="#30C3FF" offset="0"/>
    <stop stop-color="#3782FF" offset="1"/>
  </linearGradient>
  <ellipse cx="76" cy="40.5" rx="2.1" ry="2.1" fill="url(#SVGID_15_)"/>
  <linearGradient id="SVGID_16_" x1="94.16" x2="98.76" y1="46.1" y2="46.1" gradientUnits="userSpaceOnUse">
    <stop stop-color="#30C3FF" offset="0"/>
    <stop stop-color="#3782FF" offset="1"/>
  </linearGradient>
  <ellipse cx="96.4" cy="46.1" rx="2.3" ry="2.2" fill="url(#SVGID_16_)"/>
  <path d="m109.3 88.3h-67.3c-1.9 0-3.8 1.6-3.8 3.6v11.4c0 2 1.6 3.7 3.6 3.7h67.5c2 0.2 4-1.4 4-3.5v-11.6c0-1.9-1.6-3.7-4-3.6z" fill="#0B1020" stroke="#353B6E" stroke-miterlimit="10" stroke-width=".56"/>
  <linearGradient id="SVGID_17_" x1="47.05" x2="52.33" y1="97.44" y2="97.44" gradientUnits="userSpaceOnUse">
    <stop stop-color="#25A6F8" offset="0"/>
    <stop stop-color="#6E40EE" offset="1"/>
  </linearGradient>
  <circle cx="49.7" cy="97.4" r="2.5" fill="url(#SVGID_17_)"/>
  <linearGradient id="SVGID_18_" x1="56.66" x2="72.66" y1="97.4" y2="97.4" gradientUnits="userSpaceOnUse">
    <stop stop-color="#3775F6" offset="0"/>
    <stop stop-color="#7856F5" offset="1"/>
  </linearGradient>
  <path d="m71.5 98.5h-13.7c-0.5 0-1.1-0.4-1.1-1v-0.1c0-0.6 0.5-1.1 1.1-1.1h13.7c1 0 1.5 0.5 1.2 1.5-0.2 0.4-0.6 0.7-1.2 0.7z" fill="url(#SVGID_18_)"/>
  <linearGradient id="SVGID_19_" x1="93.7" x2="104.1" y1="97.35" y2="97.35" gradientUnits="userSpaceOnUse">
    <stop stop-color="#3775F6" offset="0"/>
    <stop stop-color="#7856F5" offset="1"/>
  </linearGradient>
  <path d="m94.5 98.5c0.5 0 1-0.5 1-1.1 0-0.5-0.5-1-1-1s-0.9 0.5-0.9 1c0 0.6 0.5 1.1 0.9 1.1zm4.3 0c0.5 0 1-0.5 1-1s-0.5-1.1-1-1.1-1 0.5-1 1.1 0.5 1 1 1zm4.3 0c0.5 0 1-0.5 1-1s-0.5-1.1-1-1.1-1 0.5-1 1.1 0.5 1 1 1z" fill="url(#SVGID_19_)"/>
  <path d="m109.3 107.4h-67.3c-1.9 0-3.8 1.6-3.8 3.6v10.9c0 2 1.6 3.7 3.6 3.7h67.5c2 0.2 4-1.4 4-3.5v-11.1c0-1.9-1.6-3.7-4-3.6z" fill="#0B1020" stroke="#353B6E" stroke-miterlimit="10" stroke-width=".56"/>
  <linearGradient id="SVGID_20_" x1="47.05" x2="52.33" y1="116.6" y2="116.6" gradientUnits="userSpaceOnUse">
    <stop stop-color="#25A6F8" offset="0"/>
    <stop stop-color="#6E40EE" offset="1"/>
  </linearGradient>
  <circle cx="49.7" cy="116.6" r="2.5" fill="url(#SVGID_20_)"/>
  <linearGradient id="SVGID_21_" x1="56.66" x2="72.66" y1="116.6" y2="116.6" gradientUnits="userSpaceOnUse">
    <stop stop-color="#3775F6" offset="0"/>
    <stop stop-color="#7856F5" offset="1"/>
  </linearGradient>
  <path d="m71.5 117.6h-13.7c-0.5 0-1.1-0.4-1.1-1s0.5-1 1-1h13.8c1.5-0.1 1.8 2 0 2z" fill="url(#SVGID_21_)"/>
  <linearGradient id="SVGID_22_" x1="93.7" x2="104.1" y1="116.6" y2="116.6" gradientUnits="userSpaceOnUse">
    <stop stop-color="#3775F6" offset="0"/>
    <stop stop-color="#7856F5" offset="1"/>
  </linearGradient>
  <path d="m94.5 117.6c0.5 0 1-0.5 1-1s-0.5-1-1-1-0.9 0.5-0.9 1 0.5 1 0.9 1zm4.3 0c0.5 0 1-0.5 1-1s-0.5-1-1-1-1 0.5-1 1 0.5 1 1 1zm4.3 0c0.5 0 1-0.5 1-1s-0.5-1-1-1-1.5 1-1 1.6c0.2 0.3 0.6 0.5 1 0.4z" fill="url(#SVGID_22_)"/>
</svg>
