<svg xmlns="http://www.w3.org/2000/svg" viewBox="0 0 128 128">
<!-- SVG created with Arrow, by QuiverAI (https://quiver.ai) -->
  <style type="text/css">.cls-0 {fill:#FFFFFF;}
.cls-1 {fill:#F4F4F4;}
.cls-2 {fill:url(#SVGID_1_);}
.cls-3 {fill:#6665A4;}
.cls-4 {fill:#202244;}
.cls-5 {fill:#6A6AF4;}
.cls-6 {fill:#5B5B7C;}
.cls-7 {fill:#6B6BD6;}
.cls-8 {fill:#5B5B7D;}
.cls-9 {fill:#191B28;}
.cls-10 {fill:#252552;}
.cls-11 {fill:none;stroke:#6A6AF4;stroke-width:2.5;stroke-miterlimit:10;}
.cls-12 {fill:none;stroke:#FFFFFF;stroke-width:3.5;stroke-linecap:round;stroke-linejoin:round;stroke-miterlimit:10;}</style>
  <linearGradient id="SVGID_1_" x1="7.695" x2="90.92" y1="70.51" y2="70.51" gradientUnits="userSpaceOnUse">
    <stop stop-color="#5B5B7C" offset="0"/>
    <stop stop-color="#6665AD" offset="1"/>
  </linearGradient>
  <path class="cls-2" d="m83.6 13.1h-68.7c-3.8 0-7.2 3.3-7.2 7.4v98.7c0 4 3 7.5 7 7.5l68.9 0.1c4 0 7.3-3.3 7.3-7.4v-98.9c0-4-3.3-7.4-7.3-7.4z"/>
  <path class="cls-9" d="m83.6 15.5h-68.7c-2.5 0-4.9 2.2-4.9 5v98.7c0 2.8 2.1 5.1 4.9 5.1l68.7 0.1c2.8 0 5.1-2.2 5.1-5v-98.8c0-2.7-2.4-5.1-5.1-5.1z"/>
  <path class="cls-5" d="m63.9 8.6h-6.8c-0.5-4-3.9-7.3-8.8-7.3-4.2 0-8.3 2.6-9.4 7.3h-6.8c-2.4 0-4.6 1.9-4.6 4.4v5.4c0 2.2 1.7 4.2 4.3 4.2h32.2c2.2 0 4-1.8 4-4.1v-5.6c0-2.3-1.8-4.3-4.1-4.3z"/>
  <path class="cls-4" d="m63.6 10.9h-7.2c-0.7 0-1.6-0.6-1.6-1.5-0.2-3-2.6-5.9-6.5-5.9-4 0-6.6 2.9-6.8 5.9 0 0.8-0.7 1.5-1.5 1.5h-7.8c-1.1 0-2.1 0.9-2.1 2.1v5.3c0 1.1 0.7 1.8 1.8 1.8h31.8c1.2 0.1 1.9-0.7 1.9-1.9v-5.2c-0.1-1.1-0.9-2.1-2-2.1z"/>
  <path class="cls-5" d="m50.5 10.3c0 1.2-1 2.4-2.3 2.4s-2.4-1.1-2.4-2.4c0-1.2 0.9-2.2 2.3-2.2 1.3 0 2.4 1 2.4 2.2z"/>
  <path class="cls-5" d="m36.8 58.5c-0.4 0-0.8-0.1-1.1-0.4l-9.9-8.9c-0.8-0.8-0.9-2 0-2.8l9.6-9c0.7-0.8 1.9-0.9 2.7 0 0.7 0.8 0.7 1.7-0.1 2.4l-8.4 7.9 8.3 7.8c0.8 0.6 0.9 1.8 0.1 2.5-0.3 0.4-0.7 0.5-1.2 0.5z"/>
  <path class="cls-5" d="m61.7 58.5c-0.4 0-0.9-0.2-1.2-0.5-0.7-0.7-0.8-1.8 0-2.4l8.2-7.8-8.1-8.2c-0.8-0.6-0.8-1.9 0-2.4 0.7-0.7 1.6-0.6 2.3 0l9.5 9c0.8 0.6 0.9 1.8 0.1 2.9l-9.5 8.9c-0.4 0.4-0.8 0.5-1.3 0.5z"/>
  <path class="cls-5" d="m44.8 62.5c-1.1-0.2-2.1-1.2-1.6-2.4l9.1-26.2c0.2-0.8 1.2-1.6 2.3-1.1 0.8 0.3 1.6 1.3 1 2.3l-9.1 26.3c-0.3 0.8-0.9 1.1-1.7 1.1z"/>
  <path class="cls-7" d="m26.3 82.4c-0.3 0-0.6-0.1-0.7-0.3l-3.9-3.8c-0.5-0.5-0.4-1.2 0.1-1.7 0.4-0.4 1.1-0.3 1.5 0.1l3.1 3 5.7-5.7c0.5-0.6 1.2-0.5 1.6-0.1 0.5 0.5 0.6 1.2 0 1.7l-6.5 6.6c-0.3 0.2-0.6 0.2-0.9 0.2z"/>
  <path class="cls-8" d="m73.1 78.6h-32.5c-0.7 0-1.3-0.7-1.1-1.4 0.1-0.5 0.6-0.9 1.1-0.9h32.6c0.6 0 1.2 0.6 1.1 1.4-0.1 0.5-0.5 0.9-1.2 0.9z"/>
  <path class="cls-7" d="m26.3 99c-0.3 0-0.6-0.1-0.7-0.3l-3.9-3.7c-0.5-0.4-0.6-1.3-0.1-1.7 0.4-0.5 1.3-0.4 1.7 0.1l3.1 3.1 5.7-6.2c0.5-0.7 1.3-0.7 1.7-0.2 0.5 0.5 0.5 1.2-0.1 1.7l-6.5 6.9c-0.3 0.3-0.6 0.3-0.9 0.3z"/>
  <path class="cls-6" d="m63.3 95.2h-22.7c-0.7 0-1.4-0.6-1.2-1.4 0.1-0.5 0.6-0.9 1.2-0.9h22.7c0.7 0 1.3 0.5 1.2 1.3 0 0.6-0.5 1-1.2 1z"/>
  <path class="cls-7" d="m26.3 111.4c-0.3 0-0.6-0.1-0.7-0.3l-3.9-3.9c-0.5-0.5-0.5-1.3 0.1-1.8 0.4-0.4 1.1-0.3 1.5 0.2l3.1 3.2 5.7-5.9c0.4-0.7 1.3-0.6 1.7-0.2 0.5 0.6 0.6 1.1-0.1 1.8l-6.5 6.7c-0.3 0.2-0.6 0.2-0.9 0.2z"/>
  <path class="cls-6" d="m63.3 107.4h-22.7c-0.7 0-1.4-0.6-1.2-1.5 0.1-0.4 0.6-0.9 1.2-0.9h22.7c0.8 0 1.3 0.5 1.2 1.4 0 0.5-0.5 1-1.2 1z"/>
  <linearGradient id="SVGID_2_" x1="71.32" x2="120.1" y1="101.6" y2="101.6" gradientUnits="userSpaceOnUse">
    <stop stop-color="#6E70F4" offset="0"/>
    <stop stop-color="#6A6AF4" offset="1"/>
  </linearGradient>
  <path d="m96.2 76.8c-12.2 0-24.9 9.4-24.9 24.8 0 12 9 24.1 24.9 24.1 12.6 0 24-8.7 24-24.1 0-12.2-10.3-24.8-24-24.8z" fill="url(#SVGID_2_)"/>
  <path class="cls-10" d="m96 78.9c-11 0-22.3 8.4-22.3 22.7 0 10.5 7.9 21.8 22.3 21.8 11.2 0 22.1-7.8 22.1-21.8 0-10.7-9.1-22.7-22.1-22.7z"/>
  <path class="cls-12" d="m86 102.9 6.1 6.7 13.7-15.2"/>
</svg>
