<svg xmlns="http://www.w3.org/2000/svg" viewBox="0 0 150 150">
<!-- SVG created with Arrow, by QuiverAI (https://quiver.ai) -->
  <style type="text/css">.cls-1 {fill:#0B1026;}
.cls-2 {fill:#5A48F1;}
.cls-3 {fill:#2789FF;}
.cls-4 {fill:#2A55DB;}
.cls-5 {fill:#23284F;}
.cls-6 {fill:#24264F;}
.cls-7 {fill:#29306C;}
.cls-8 {fill:#4848B4;}
.cls-9 {fill:#1A203E;}
.cls-10 {fill:#1C1E47;}
.cls-11 {fill:#181A39;}
.cls-12 {fill:#1D2147;}
.cls-13 {fill:#4559D8;}
.cls-14 {fill:#475FE4;}
.cls-15 {fill:#192044;}
.cls-16 {fill:#1A2146;}
.cls-17 {fill:none;stroke:#23284F;stroke-width:0.4;stroke-miterlimit:10;}
.cls-18 {fill:#1D1D49;}
.cls-19 {fill:#1B57E0;}
.cls-20 {fill:#1798FF;}
.cls-21 {fill:#1A66FC;}
.cls-22 {fill:none;stroke:#23284F;stroke-width:0.4;stroke-linecap:round;stroke-linejoin:round;stroke-miterlimit:10;}
.cls-23 {fill:#6555FF;}</style>
  <path class="cls-1" d="m142 12.1h-133.6c-3.8 0-6.5 2.9-6.5 6.9v8h146.6v-8c0.1-3.8-2.8-6.9-6.5-6.9z"/>
  <path class="cls-2" d="m13.6 18.8c0.9 1 0.3 3.2-1.6 3.8-2.3 0.5-3.8-2.7-2-4.1 1.1-1 2.8-0.8 3.6 0.3z"/>
  <path class="cls-3" d="m22.3 18.5c1.9 1.5 0.8 4.3-1.6 4.3-2.4-0.2-3.6-3.4-1.1-4.6 0.9-0.4 2-0.3 2.7 0.3z"/>
  <path class="cls-4" d="m31.3 18.4c2.1 1.4 0.6 5-2.3 4.1-2.4-1-2.4-5.1 2.3-4.1z"/>
  <path class="cls-5" d="m2 27.1h146.5v0.5h-146.5z"/>
  <path class="cls-6" d="m53.6 36.8"/>
  <circle class="cls-2" cx="15.3" cy="40.7" r="2.8"/>
  <path class="cls-7" d="m15.4 53.6c-3.3 0.2-4.1 4.7-0.8 5.9 4.1 0.9 5.3-5.3 0.8-5.9z"/>
  <circle class="cls-7" cx="15.3" cy="69.1" r="2.8"/>
  <path class="cls-9" d="m50.6 35.9h-38.8c-1.5 0.1-2.8 1.3-2.8 3v3.7c0 1.7 1.1 2.9 2.8 2.9h38.8c1.7 0 3.2-1.1 3.2-2.9v-3.7c0-1.7-1.3-3-3.2-3z"/>
  <path class="cls-8" d="m38.5 39.4h-14.6c-1.7 0.1-1.9 2.6 0 2.7h14.6c1.8 0 2-2.5 0-2.7z"/>
  <path class="cls-10" d="m40.6 55.2h-16.7c-1.7 0.2-2.1 2.5 0 2.9h16.7c1.9 0 2-2.7 0-2.9z"/>
  <path class="cls-12" d="m40.6 67.6h-16.7c-1.8 0.1-2.2 2.6 0 2.9h16.7c1.9 0 2-2.7 0-2.9z"/>
  <path class="cls-18" d="m50.7 83.4"/>
  <path class="cls-15" d="m40.6 94.4h-16.8c-1.8 0.1-2.1 2.4 0 2.8h16.8c1.9 0 2-2.7 0-2.8z"/>
  <path class="cls-16" d="m40.5 107.5h-16.7c-1.8 0.1-2.2 2.6 0 3h16.7c2.1 0 2.1-2.9 0-3z"/>
  <path class="cls-16" d="m40.5 119.1h-16.7c-1.8 0.2-2.3 2.5 0 2.8h16.7c2.1 0 2.1-2.7 0-2.8z"/>
  <line class="cls-17" x1="12.7" x2="49.3" y1="83.6" y2="83.6"/>
  <path class="cls-18" d="m53.7 49.5"/>
  <path class="cls-19" d="m17.1 93.1h-3.5c-0.5 0-1 0.5-1 0.9v3.7c0 0.6 0.5 1.1 1 1.1h3.5c0.5 0 1-0.5 1-1v-3.8c0-0.4-0.5-0.9-1-0.9z"/>
  <path class="cls-20" d="m17.1 105.9h-3.5c-0.5 0-1 0.5-1 0.9v4.2c0.1 0.6 0.5 1.1 1 1.1h3.5c0.5 0 1-0.5 1-1v-4.2c-0.1-0.5-0.5-1-1-1z"/>
  <path class="cls-21" d="m17.1 117.8h-3.5c-0.5 0-1 0.5-1 0.9v3.9c0 0.5 0.5 0.9 1 0.9h3.5c0.5 0 1-0.4 1-0.9v-3.9c0-0.4-0.5-0.9-1-0.9z"/>
  <path class="cls-18" d="m53.7 49.5"/>
  <line class="cls-22" x1="53.8" x2="53.8" y1="49.6" y2="130.1"/>
  <path class="cls-18" d="m65.4 35.9h72.9c1.4 0 2.5 1.2 2.5 2.6v40.7c0 1.4-1.1 2.8-2.5 2.8h-72.9c-1.5 0-2.9-1.2-2.9-2.8v-40.4c0-1.6 1.4-2.9 2.9-2.9z"/>
  <path class="cls-11" d="m65.2 86.8h31.1c1.5 0 2.8 1.1 2.8 2.7v9.5c0 1.5-1.2 2.9-2.8 2.9h-31.1c-1.6 0-2.8-1.3-2.8-2.9v-9.5c0-1.6 1.2-2.7 2.8-2.7z"/>
  <path class="cls-15" d="m106.9 87.1c-0.8 0.5-2.8 1-2.7 3.8v8.1c0 1.6 1.2 2.9 2.7 2.9h31.5c1.5 0 2.4-1.3 2.4-2.6v-9.8c0-1.4-0.9-2.7-2.4-2.7h-31.2l-0.3 0.3z"/>
  <path class="cls-13" d="m63.8 111.2h61.6c1.7 0.1 1.9 2.7 0 2.9h-61.6c-2-0.1-2-2.7 0-2.9z"/>
  <path class="cls-14" d="m63.7 118.3h40.3c1.7 0 2 2.4 0 2.8h-40.3c-1.7 0-2-2.5 0-2.8z"/>
  <path class="cls-14" d="m63.7 124.3h18.4c1.8-0.1 2.1 2.5 0 2.8h-18.4c-1.9-0.1-1.9-2.6 0-2.8z"/>
  <path class="cls-2" d="m15.3 38c-2.7 0.3-3.9 4-0.8 5.2 3.4 1 5.4-4.1 1.6-5.1l-0.8-0.1z"/>
  <path class="cls-23" d="m91.7 51c-0.9-0.2-1.4 0.7-1.8 1l-5.5 5.8c-0.4 0.8-0.3 1.8 0.4 2.4l5.8 5.9c1.4 1.3 3.4-0.7 2-2.2l-5.1-5 5-5.1c1.1-1 0.2-2.6-0.8-2.8z"/>
  <path class="cls-23" d="m111.1 51c0.9-0.2 1.4 0.7 1.8 1l4.8 5.6c0.6 0.6 0.4 2.1 0 2.3l-5.8 6.2c-1.4 1.3-3.7-0.8-2.1-2.2l5.1-5.1-5.3-5.2c-1-1.3 0.3-2.5 1.5-2.6z"/>
  <path class="cls-23" d="m104.1 47.3c-0.9 0.3-1.3 2-1.5 2.7l-6.1 17.3c-0.5 1.8 1.9 3.1 2.7 1l6.2-18.4c0.7-1.7-0.2-2.7-1.3-2.6z"/>
</svg>
